<?xml version="1.0" standalone="no"?>
<!DOCTYPE svg PUBLIC "-//W3C//DTD SVG 20010904//EN"
 "http://www.w3.org/TR/2001/REC-SVG-20010904/DTD/svg10.dtd">
<svg version="1.0" xmlns="http://www.w3.org/2000/svg"
 width="1280.000000pt" height="1280.000000pt" viewBox="0 0 1280.000000 1280.000000"
 preserveAspectRatio="xMidYMid meet">
<metadata>
Created by potrace 1.15, written by Peter Selinger 2001-2017
</metadata>
<g transform="translate(0.000000,1280.000000) scale(0.100000,-0.100000)"
fill="#000000" stroke="none">
<path d="M6085 12269 c-1810 -147 -3440 -1120 -4442 -2650 -526 -805 -844
-1731 -940 -2740 -23 -245 -23 -780 1 -1024 137 -1430 719 -2684 1706 -3676
483 -485 983 -842 1594 -1140 1071 -520 2287 -699 3466 -508 1719 277 3234
1319 4119 2834 436 746 695 1556 788 2465 24 241 24 851 0 1090 -105 1011
-417 1905 -951 2715 -237 360 -453 623 -770 940 -309 308 -569 522 -911 748
-781 516 -1638 823 -2605 933 -169 19 -874 28 -1055 13z m781 -1459 c961 -76
1852 -451 2571 -1082 121 -106 352 -342 458 -467 l79 -94 -67 -271 c-45 -177
-125 -450 -233 -786 l-165 -515 -237 -238 -237 -238 -167 -104 c-160 -100
-180 -109 -457 -215 -160 -60 -296 -110 -303 -110 -8 0 -109 55 -226 123
l-212 122 -201 415 c-174 360 -207 422 -249 464 l-49 50 -38 -18 c-58 -27
-101 -90 -161 -240 -43 -108 -58 -136 -70 -131 -8 3 -115 68 -236 144 -122 77
-247 152 -278 167 -55 27 -58 27 -77 10 -19 -17 -33 0 -577 651 -307 367 -760
910 -1007 1206 -247 296 -448 539 -446 541 13 13 243 137 345 186 496 240
1040 389 1574 429 156 12 519 12 666 1z m-2709 -2690 c511 -613 961 -1153
1000 -1200 39 -46 69 -88 66 -93 -3 -5 -67 52 -142 126 -133 131 -184 167
-236 167 -31 0 -53 -37 -57 -95 l-3 -48 -58 49 c-49 43 -63 49 -92 46 -67 -8
-69 -16 -76 -291 -5 -229 -42 -655 -58 -673 -14 -16 -160 104 -256 210 -98
107 -215 286 -215 329 0 10 -5 25 -10 33 -8 12 -10 9 -10 -12 0 -46 78 -209
148 -307 67 -94 79 -106 304 -276 18 -14 28 -34 33 -62 l7 -43 -248 170 -247
170 -90 132 c-78 117 -98 134 -68 56 5 -13 41 -65 80 -116 76 -102 144 -159
423 -358 136 -97 147 -107 143 -132 -3 -15 -12 -99 -20 -187 -17 -186 -83
-543 -115 -629 -27 -70 -101 -148 -223 -235 -77 -55 -595 -345 -793 -444 -117
-59 -468 -200 -561 -225 l-73 -20 -69 131 c-600 1142 -672 2518 -195 3723 171
433 383 798 678 1167 66 83 71 87 87 70 9 -10 435 -520 946 -1133z m6163 543
c325 -542 530 -1153 605 -1808 22 -196 30 -584 16 -780 -44 -601 -193 -1157
-447 -1679 -18 -38 -19 -38 -64 -32 -55 8 -598 230 -807 331 -151 73 -159 78
-520 361 -203 158 -446 353 -541 433 l-173 146 -183 285 c-169 263 -242 387
-234 395 2 2 260 -70 573 -161 314 -90 580 -167 592 -170 21 -6 22 -5 8 47 -8
28 -18 55 -22 59 -4 5 -127 57 -273 117 -191 78 -367 141 -629 223 l-364 115
-43 94 c-24 51 -44 95 -44 97 0 2 66 -44 146 -102 80 -58 152 -108 159 -111 8
-3 239 105 512 239 l498 243 256 255 257 255 180 445 c164 404 187 470 257
720 43 151 79 279 82 283 6 11 99 -126 203 -300z m-3113 -985 c9 -12 298 -613
311 -646 3 -10 -429 288 -460 317 -4 3 19 74 50 156 32 83 61 158 65 168 8 20
21 22 34 5z m-525 -166 l187 -124 -26 -56 c-14 -31 -33 -74 -42 -94 -9 -21
-19 -37 -23 -35 -4 1 -88 99 -187 217 -169 201 -179 216 -164 232 15 17 18 17
42 1 14 -9 110 -72 213 -141z m657 -467 l264 -188 63 -131 c34 -72 61 -132 59
-134 -2 -3 -343 100 -561 169 -22 7 -59 43 -122 118 -49 59 -95 117 -102 128
-11 17 -6 39 30 147 l42 127 31 -24 c18 -13 151 -108 296 -212z m-2326 -233
c79 -80 117 -124 117 -140 0 -12 -3 -22 -7 -22 -4 0 -61 53 -125 117 -81 81
-118 125 -118 140 0 13 3 23 8 23 4 0 60 -53 125 -118z m-236 -38 c5 -13 -123
-763 -131 -771 -2 -3 -16 3 -30 12 -32 21 -32 26 -6 272 16 152 40 502 40 586
0 15 14 7 61 -34 34 -29 63 -58 66 -65z m198 -164 c92 -108 101 -123 111 -176
11 -60 70 -176 123 -244 15 -19 30 -40 34 -46 4 -7 -27 -32 -79 -65 -77 -47
-89 -59 -117 -113 -24 -46 -33 -79 -37 -134 l-5 -73 -137 88 c-95 60 -136 93
-133 103 2 8 32 187 66 398 35 210 66 382 69 381 3 0 50 -54 105 -119z m2639
-188 l230 -67 186 -388 185 -387 700 -505 700 -504 375 -152 c206 -83 388
-156 403 -163 l28 -11 -96 -160 c-53 -88 -133 -213 -179 -278 -84 -121 -256
-341 -261 -335 -1 2 -562 674 -1245 1493 -684 820 -1250 1498 -1258 1508 -8 9
-11 17 -6 17 5 0 112 -31 238 -68z m-1889 -642 c203 -223 211 -228 290 -183
29 16 53 38 63 59 9 19 19 33 23 32 3 -2 33 -34 66 -73 l60 -70 -159 -624
-159 -624 -66 -96 c-51 -75 -95 -122 -200 -216 -234 -209 -238 -212 -284 -219
-23 -4 -73 -23 -111 -43 -71 -37 -71 -38 -53 -99 2 -8 41 -5 131 8 l128 18 60
58 c34 31 97 91 142 133 68 64 265 315 301 384 6 11 61 182 123 380 105 336
130 406 130 361 0 -10 30 -162 66 -339 53 -256 71 -327 88 -345 33 -37 49 -42
73 -23 l21 18 -37 49 -38 49 -63 353 -63 354 59 189 c46 150 60 187 70 177 34
-36 2414 -2893 2414 -2898 0 -12 -310 -177 -465 -246 -547 -244 -1083 -366
-1685 -381 -1429 -36 -2767 617 -3632 1772 -41 55 -83 112 -93 128 l-17 27
233 113 234 114 550 410 c383 286 559 412 580 415 l30 3 85 443 c48 251 89
441 95 440 6 -2 65 -31 132 -66 113 -58 123 -66 129 -96 4 -26 14 -38 47 -54
23 -11 56 -23 73 -27 l32 -6 -5 -57 c-3 -39 0 -69 11 -94 16 -38 16 -38 76
-38 33 0 60 -3 60 -8 0 -4 -29 -40 -65 -81 -35 -40 -92 -112 -126 -158 l-61
-85 12 -61 c7 -34 16 -66 20 -70 4 -5 20 12 36 37 16 25 31 46 34 46 3 0 14
-13 23 -30 35 -58 51 -35 67 95 7 60 22 121 36 154 13 30 26 52 28 50 2 -2 -1
-67 -5 -144 -4 -77 -17 -329 -29 -560 -11 -231 -22 -454 -24 -495 -2 -41 -7
-82 -11 -91 -5 -13 1 -18 25 -21 30 -5 37 4 358 431 181 240 338 453 351 474
34 56 23 116 -39 211 -43 66 -61 83 -172 158 -67 47 -154 104 -193 126 -38 23
-83 53 -99 66 -26 21 -28 28 -22 62 4 22 25 75 46 119 21 44 44 107 51 140 10
53 9 70 -9 140 l-21 80 27 22 c15 12 30 21 33 20 3 -1 86 -90 184 -197z
m-1104 159 c16 -11 29 -30 29 -41 0 -21 3 -23 -79 38 -4 4 9 24 16 24 2 0 18
-9 34 -21z m243 -137 c98 -63 133 -91 127 -100 -12 -20 -271 143 -271 169 0
10 2 19 5 19 2 0 65 -39 139 -88z m-297 -294 c-39 -169 -72 -306 -74 -305 -3
3 68 650 73 666 4 11 14 6 39 -20 l34 -34 -72 -307z m1093 -349 c195 -163 224
-195 214 -236 -6 -23 -562 -790 -613 -846 -15 -16 -16 -6 -4 125 7 79 31 355
53 613 22 259 43 484 46 502 l5 32 62 -22 c50 -18 96 -51 237 -168z m-1235
-178 c-29 -58 9 -28 -542 -428 -327 -237 -357 -256 -680 -435 -186 -104 -341
-188 -345 -188 -7 0 -88 128 -88 139 0 4 138 68 308 141 300 131 318 140 752
397 426 252 449 267 530 348 46 46 86 83 88 81 2 -2 -8 -27 -23 -55z"/>
</g>
</svg>
